<mxfile host="Electron" agent="Mozilla/5.0 (Windows NT 10.0; Win64; x64) AppleWebKit/537.36 (KHTML, like Gecko) draw.io/24.7.17 Chrome/128.0.6613.36 Electron/32.0.1 Safari/537.36" version="24.7.17">
  <diagram name="第 1 页" id="TEYKT1qixROiFxjkDTGD">
    <mxGraphModel dx="2840" dy="1644" grid="1" gridSize="10" guides="1" tooltips="1" connect="1" arrows="1" fold="1" page="1" pageScale="1" pageWidth="1169" pageHeight="827" math="0" shadow="0">
      <root>
        <mxCell id="0" />
        <mxCell id="1" parent="0" />
        <mxCell id="aA4Id0uSG5UaYZLyrY37-35" value="" style="rounded=0;whiteSpace=wrap;html=1;" parent="1" vertex="1">
          <mxGeometry x="240" y="250" width="960" height="580" as="geometry" />
        </mxCell>
        <mxCell id="aA4Id0uSG5UaYZLyrY37-37" value="" style="line;strokeWidth=1;fillColor=none;align=left;verticalAlign=middle;spacingTop=-1;spacingLeft=3;spacingRight=3;rotatable=0;labelPosition=right;points=[];portConstraint=eastwest;strokeColor=inherit;" parent="1" vertex="1">
          <mxGeometry x="240" y="295" width="960" height="8" as="geometry" />
        </mxCell>
        <mxCell id="aA4Id0uSG5UaYZLyrY37-38" value="欢迎，ikklo！" style="text;align=center;fontStyle=1;verticalAlign=middle;spacingLeft=3;spacingRight=3;strokeColor=none;rotatable=0;points=[[0,0.5],[1,0.5]];portConstraint=eastwest;html=1;" parent="1" vertex="1">
          <mxGeometry x="675" y="260" width="90" height="30" as="geometry" />
        </mxCell>
        <mxCell id="aA4Id0uSG5UaYZLyrY37-39" value="头像" style="ellipse;whiteSpace=wrap;html=1;aspect=fixed;" parent="1" vertex="1">
          <mxGeometry x="250" y="255" width="40" height="40" as="geometry" />
        </mxCell>
        <mxCell id="aA4Id0uSG5UaYZLyrY37-42" value="探索" style="rounded=0;whiteSpace=wrap;html=1;" parent="1" vertex="1">
          <mxGeometry x="880" y="260" width="60" height="30" as="geometry" />
        </mxCell>
        <mxCell id="aA4Id0uSG5UaYZLyrY37-43" value="书架" style="rounded=0;whiteSpace=wrap;html=1;" parent="1" vertex="1">
          <mxGeometry x="960" y="260" width="60" height="30" as="geometry" />
        </mxCell>
        <mxCell id="aA4Id0uSG5UaYZLyrY37-44" value="上传" style="rounded=0;whiteSpace=wrap;html=1;" parent="1" vertex="1">
          <mxGeometry x="1040" y="260" width="60" height="30" as="geometry" />
        </mxCell>
        <mxCell id="aA4Id0uSG5UaYZLyrY37-45" value="论坛" style="rounded=0;whiteSpace=wrap;html=1;" parent="1" vertex="1">
          <mxGeometry x="1120" y="260" width="60" height="30" as="geometry" />
        </mxCell>
        <mxCell id="aA4Id0uSG5UaYZLyrY37-46" value="输入关键词搜索" style="rounded=0;whiteSpace=wrap;html=1;" parent="1" vertex="1">
          <mxGeometry x="545" y="330" width="350" height="20" as="geometry" />
        </mxCell>
        <mxCell id="aA4Id0uSG5UaYZLyrY37-47" value="搜索" style="rounded=0;whiteSpace=wrap;html=1;" parent="1" vertex="1">
          <mxGeometry x="930" y="330" width="80" height="20" as="geometry" />
        </mxCell>
        <mxCell id="aA4Id0uSG5UaYZLyrY37-48" value="" style="rounded=0;whiteSpace=wrap;html=1;" parent="1" vertex="1">
          <mxGeometry x="240" y="300" width="130" height="518" as="geometry" />
        </mxCell>
        <mxCell id="aA4Id0uSG5UaYZLyrY37-49" value="科教" style="text;html=1;align=center;verticalAlign=middle;whiteSpace=wrap;rounded=0;strokeColor=default;" parent="1" vertex="1">
          <mxGeometry x="240" y="414" width="130" height="30" as="geometry" />
        </mxCell>
        <mxCell id="aA4Id0uSG5UaYZLyrY37-50" value="小说" style="text;html=1;align=center;verticalAlign=middle;whiteSpace=wrap;rounded=0;strokeColor=default;" parent="1" vertex="1">
          <mxGeometry x="240" y="303" width="130" height="30" as="geometry" />
        </mxCell>
        <mxCell id="aA4Id0uSG5UaYZLyrY37-51" value="艺术" style="text;html=1;align=center;verticalAlign=middle;whiteSpace=wrap;rounded=0;strokeColor=default;" parent="1" vertex="1">
          <mxGeometry x="240" y="444" width="130" height="30" as="geometry" />
        </mxCell>
        <mxCell id="aA4Id0uSG5UaYZLyrY37-52" value="文学" style="text;html=1;align=center;verticalAlign=middle;whiteSpace=wrap;rounded=0;strokeColor=default;" parent="1" vertex="1">
          <mxGeometry x="240" y="474" width="130" height="30" as="geometry" />
        </mxCell>
        <mxCell id="aA4Id0uSG5UaYZLyrY37-55" value="" style="rounded=0;whiteSpace=wrap;html=1;" parent="1" vertex="1">
          <mxGeometry x="400" y="360" width="770" height="110" as="geometry" />
        </mxCell>
        <mxCell id="aA4Id0uSG5UaYZLyrY37-53" value="封面" style="rounded=0;whiteSpace=wrap;html=1;" parent="1" vertex="1">
          <mxGeometry x="400" y="360" width="70" height="87" as="geometry" />
        </mxCell>
        <mxCell id="aA4Id0uSG5UaYZLyrY37-54" value="书名" style="text;html=1;align=center;verticalAlign=middle;whiteSpace=wrap;rounded=0;strokeColor=default;" parent="1" vertex="1">
          <mxGeometry x="470" y="363" width="130" height="37" as="geometry" />
        </mxCell>
        <mxCell id="aA4Id0uSG5UaYZLyrY37-56" value="介绍介绍介绍介绍介绍介绍介绍介绍介绍介绍介绍介绍介绍介绍介绍介绍介绍介绍介绍介绍介绍介绍介绍介绍介绍介绍介绍介绍介绍介绍介绍介绍介绍介绍介绍介绍介绍介绍介绍介绍介绍介绍介绍介绍介绍介绍介绍介绍介绍介绍介绍介绍介绍介绍介绍介绍介绍介绍介绍介绍介绍介绍介绍介绍介绍介绍介绍介绍介绍介绍介绍介绍介绍介绍介绍" style="text;html=1;align=center;verticalAlign=middle;whiteSpace=wrap;rounded=0;strokeColor=default;" parent="1" vertex="1">
          <mxGeometry x="470" y="414" width="640" height="56" as="geometry" />
        </mxCell>
        <mxCell id="aA4Id0uSG5UaYZLyrY37-59" value="" style="rounded=0;whiteSpace=wrap;html=1;" parent="1" vertex="1">
          <mxGeometry x="399" y="485" width="770" height="110" as="geometry" />
        </mxCell>
        <mxCell id="aA4Id0uSG5UaYZLyrY37-60" value="" style="rounded=0;whiteSpace=wrap;html=1;" parent="1" vertex="1">
          <mxGeometry x="399" y="620" width="770" height="110" as="geometry" />
        </mxCell>
        <mxCell id="aA4Id0uSG5UaYZLyrY37-61" value="" style="rounded=0;whiteSpace=wrap;html=1;" parent="1" vertex="1">
          <mxGeometry x="399" y="750" width="770" height="80" as="geometry" />
        </mxCell>
        <mxCell id="aA4Id0uSG5UaYZLyrY37-62" value="" style="triangle;whiteSpace=wrap;html=1;rotation=90;" parent="1" vertex="1">
          <mxGeometry x="350" y="311" width="10" height="14" as="geometry" />
        </mxCell>
        <mxCell id="aA4Id0uSG5UaYZLyrY37-63" value="古典" style="text;html=1;align=center;verticalAlign=middle;whiteSpace=wrap;rounded=0;" parent="1" vertex="1">
          <mxGeometry x="240" y="333" width="130" height="27" as="geometry" />
        </mxCell>
        <mxCell id="aA4Id0uSG5UaYZLyrY37-64" value="科幻" style="text;html=1;align=center;verticalAlign=middle;whiteSpace=wrap;rounded=0;" parent="1" vertex="1">
          <mxGeometry x="240" y="360" width="130" height="27" as="geometry" />
        </mxCell>
        <mxCell id="aA4Id0uSG5UaYZLyrY37-65" value="爱情" style="text;html=1;align=center;verticalAlign=middle;whiteSpace=wrap;rounded=0;" parent="1" vertex="1">
          <mxGeometry x="240" y="387" width="130" height="27" as="geometry" />
        </mxCell>
        <mxCell id="aA4Id0uSG5UaYZLyrY37-67" value="排序" style="text;html=1;align=center;verticalAlign=middle;whiteSpace=wrap;rounded=0;strokeColor=default;" parent="1" vertex="1">
          <mxGeometry x="1130" y="325" width="40" height="25" as="geometry" />
        </mxCell>
        <mxCell id="aA4Id0uSG5UaYZLyrY37-121" value="" style="endArrow=classic;html=1;rounded=0;exitX=1;exitY=0.25;exitDx=0;exitDy=0;entryX=1;entryY=0.25;entryDx=0;entryDy=0;" parent="1" source="aA4Id0uSG5UaYZLyrY37-55" target="aA4Id0uSG5UaYZLyrY37-122" edge="1">
          <mxGeometry width="50" height="50" relative="1" as="geometry">
            <mxPoint x="1300" y="510" as="sourcePoint" />
            <mxPoint x="1400" y="890" as="targetPoint" />
            <Array as="points">
              <mxPoint x="1530" y="390" />
              <mxPoint x="1540" y="1035" />
            </Array>
          </mxGeometry>
        </mxCell>
        <mxCell id="aA4Id0uSG5UaYZLyrY37-122" value="" style="rounded=0;whiteSpace=wrap;html=1;" parent="1" vertex="1">
          <mxGeometry x="240" y="890" width="960" height="580" as="geometry" />
        </mxCell>
        <mxCell id="aA4Id0uSG5UaYZLyrY37-123" value="" style="line;strokeWidth=1;fillColor=none;align=left;verticalAlign=middle;spacingTop=-1;spacingLeft=3;spacingRight=3;rotatable=0;labelPosition=right;points=[];portConstraint=eastwest;strokeColor=inherit;" parent="1" vertex="1">
          <mxGeometry x="240" y="935" width="960" height="8" as="geometry" />
        </mxCell>
        <mxCell id="aA4Id0uSG5UaYZLyrY37-124" value="欢迎，ikklo！" style="text;align=center;fontStyle=1;verticalAlign=middle;spacingLeft=3;spacingRight=3;strokeColor=none;rotatable=0;points=[[0,0.5],[1,0.5]];portConstraint=eastwest;html=1;" parent="1" vertex="1">
          <mxGeometry x="675" y="900" width="90" height="30" as="geometry" />
        </mxCell>
        <mxCell id="aA4Id0uSG5UaYZLyrY37-125" value="头像" style="ellipse;whiteSpace=wrap;html=1;aspect=fixed;" parent="1" vertex="1">
          <mxGeometry x="250" y="895" width="40" height="40" as="geometry" />
        </mxCell>
        <mxCell id="aA4Id0uSG5UaYZLyrY37-151" value="返回&amp;lt;" style="text;html=1;align=center;verticalAlign=middle;whiteSpace=wrap;rounded=0;" parent="1" vertex="1">
          <mxGeometry x="1120" y="900" width="60" height="30" as="geometry" />
        </mxCell>
        <mxCell id="aA4Id0uSG5UaYZLyrY37-152" value="书名" style="text;html=1;align=center;verticalAlign=middle;whiteSpace=wrap;rounded=0;fontSize=24;" parent="1" vertex="1">
          <mxGeometry x="240" y="941" width="240" height="55" as="geometry" />
        </mxCell>
        <mxCell id="aA4Id0uSG5UaYZLyrY37-153" value="&lt;font style=&quot;font-size: 24px;&quot;&gt;封面&lt;/font&gt;" style="rounded=0;whiteSpace=wrap;html=1;" parent="1" vertex="1">
          <mxGeometry x="240" y="996" width="240" height="300" as="geometry" />
        </mxCell>
        <mxCell id="aA4Id0uSG5UaYZLyrY37-154" value="介绍" style="text;html=1;align=center;verticalAlign=middle;whiteSpace=wrap;rounded=0;strokeColor=default;fontSize=24;" parent="1" vertex="1">
          <mxGeometry x="534" y="966" width="566" height="190" as="geometry" />
        </mxCell>
        <mxCell id="aA4Id0uSG5UaYZLyrY37-156" value="" style="rounded=0;whiteSpace=wrap;html=1;" parent="1" vertex="1">
          <mxGeometry x="534" y="1176" width="566" height="180" as="geometry" />
        </mxCell>
        <mxCell id="aA4Id0uSG5UaYZLyrY37-157" value="" style="rounded=0;whiteSpace=wrap;html=1;" parent="1" vertex="1">
          <mxGeometry x="539" y="1186" width="556" height="80" as="geometry" />
        </mxCell>
        <mxCell id="aA4Id0uSG5UaYZLyrY37-158" value="头像" style="ellipse;whiteSpace=wrap;html=1;aspect=fixed;fontSize=20;" parent="1" vertex="1">
          <mxGeometry x="539" y="1196" width="60" height="60" as="geometry" />
        </mxCell>
        <mxCell id="aA4Id0uSG5UaYZLyrY37-159" value="资源包名字" style="text;html=1;align=center;verticalAlign=middle;whiteSpace=wrap;rounded=0;strokeColor=default;fontSize=20;" parent="1" vertex="1">
          <mxGeometry x="610" y="1191" width="310" height="30" as="geometry" />
        </mxCell>
        <mxCell id="aA4Id0uSG5UaYZLyrY37-160" value="资源包介绍" style="text;html=1;align=center;verticalAlign=middle;whiteSpace=wrap;rounded=0;fontSize=20;" parent="1" vertex="1">
          <mxGeometry x="615" y="1221" width="135" height="39" as="geometry" />
        </mxCell>
        <mxCell id="aA4Id0uSG5UaYZLyrY37-161" value="下载" style="rounded=0;whiteSpace=wrap;html=1;fontSize=20;" parent="1" vertex="1">
          <mxGeometry x="1030" y="1196" width="60" height="33" as="geometry" />
        </mxCell>
        <mxCell id="aA4Id0uSG5UaYZLyrY37-162" value="下载次数" style="text;html=1;align=center;verticalAlign=middle;whiteSpace=wrap;rounded=0;fontSize=20;" parent="1" vertex="1">
          <mxGeometry x="902" y="1241" width="110" height="20" as="geometry" />
        </mxCell>
        <mxCell id="aA4Id0uSG5UaYZLyrY37-163" value="好评数" style="text;html=1;align=center;verticalAlign=middle;whiteSpace=wrap;rounded=0;fontSize=20;" parent="1" vertex="1">
          <mxGeometry x="1015" y="1234" width="80" height="34" as="geometry" />
        </mxCell>
        <mxCell id="aA4Id0uSG5UaYZLyrY37-164" value="" style="verticalLabelPosition=bottom;verticalAlign=top;html=1;shape=mxgraph.basic.heart" parent="1" vertex="1">
          <mxGeometry x="1000" y="1196" width="20" height="20" as="geometry" />
        </mxCell>
        <mxCell id="aA4Id0uSG5UaYZLyrY37-166" value="开始阅读" style="text;html=1;align=center;verticalAlign=middle;whiteSpace=wrap;rounded=0;strokeColor=default;fontSize=24;" parent="1" vertex="1">
          <mxGeometry x="534" y="1386" width="170" height="60" as="geometry" />
        </mxCell>
        <mxCell id="aA4Id0uSG5UaYZLyrY37-167" value="选择资源包" style="text;html=1;align=center;verticalAlign=middle;whiteSpace=wrap;rounded=0;strokeColor=default;fontSize=24;" parent="1" vertex="1">
          <mxGeometry x="732" y="1386" width="170" height="60" as="geometry" />
        </mxCell>
        <mxCell id="aA4Id0uSG5UaYZLyrY37-168" value="" style="triangle;whiteSpace=wrap;html=1;rotation=90;" parent="1" vertex="1">
          <mxGeometry x="882" y="1406.5" width="20" height="19" as="geometry" />
        </mxCell>
        <mxCell id="aA4Id0uSG5UaYZLyrY37-170" value="添加到书架" style="text;html=1;align=center;verticalAlign=middle;whiteSpace=wrap;rounded=0;strokeColor=default;fontSize=24;" parent="1" vertex="1">
          <mxGeometry x="925" y="1386" width="170" height="60" as="geometry" />
        </mxCell>
        <mxCell id="aA4Id0uSG5UaYZLyrY37-171" value="tag1,tag2,tag3,..." style="text;html=1;align=center;verticalAlign=middle;whiteSpace=wrap;rounded=0;labelPosition=center;verticalLabelPosition=middle;fontSize=20;" parent="1" vertex="1">
          <mxGeometry x="240" y="1317" width="240" height="73" as="geometry" />
        </mxCell>
        <mxCell id="KDRSRYC82BVxWry2g-rX-1" value="" style="endArrow=classic;html=1;rounded=0;exitX=0.5;exitY=1;exitDx=0;exitDy=0;" parent="1" source="aA4Id0uSG5UaYZLyrY37-167" edge="1">
          <mxGeometry width="50" height="50" relative="1" as="geometry">
            <mxPoint x="1030" y="1590" as="sourcePoint" />
            <mxPoint x="900" y="1590" as="targetPoint" />
          </mxGeometry>
        </mxCell>
        <mxCell id="KDRSRYC82BVxWry2g-rX-2" value="" style="rounded=0;whiteSpace=wrap;html=1;" parent="1" vertex="1">
          <mxGeometry x="840" y="1594" width="120" height="226" as="geometry" />
        </mxCell>
        <mxCell id="KDRSRYC82BVxWry2g-rX-3" value="资源包1" style="text;html=1;align=center;verticalAlign=middle;whiteSpace=wrap;rounded=0;fontSize=20;" parent="1" vertex="1">
          <mxGeometry x="840" y="1594" width="120" height="46" as="geometry" />
        </mxCell>
        <mxCell id="KDRSRYC82BVxWry2g-rX-4" value="显示已下载的资源包" style="text;html=1;align=center;verticalAlign=middle;whiteSpace=wrap;rounded=0;fontSize=20;" parent="1" vertex="1">
          <mxGeometry x="910" y="1560" width="210" height="30" as="geometry" />
        </mxCell>
        <mxCell id="KDRSRYC82BVxWry2g-rX-5" value="资源包2" style="text;html=1;align=center;verticalAlign=middle;whiteSpace=wrap;rounded=0;fontSize=20;" parent="1" vertex="1">
          <mxGeometry x="840" y="1640" width="120" height="46" as="geometry" />
        </mxCell>
        <mxCell id="KDRSRYC82BVxWry2g-rX-6" value="资源包3" style="text;html=1;align=center;verticalAlign=middle;whiteSpace=wrap;rounded=0;fontSize=20;" parent="1" vertex="1">
          <mxGeometry x="841" y="1686" width="119" height="46" as="geometry" />
        </mxCell>
        <mxCell id="KDRSRYC82BVxWry2g-rX-7" value="" style="endArrow=classic;html=1;rounded=0;exitX=1;exitY=0.5;exitDx=0;exitDy=0;" parent="1" source="aA4Id0uSG5UaYZLyrY37-170" edge="1">
          <mxGeometry width="50" height="50" relative="1" as="geometry">
            <mxPoint x="1290" y="1440" as="sourcePoint" />
            <mxPoint x="1340" y="1416" as="targetPoint" />
          </mxGeometry>
        </mxCell>
        <mxCell id="KDRSRYC82BVxWry2g-rX-8" value="弹窗" style="text;html=1;align=center;verticalAlign=middle;whiteSpace=wrap;rounded=0;fontSize=20;" parent="1" vertex="1">
          <mxGeometry x="1340" y="1379" width="120" height="74" as="geometry" />
        </mxCell>
        <mxCell id="KDRSRYC82BVxWry2g-rX-9" value="" style="endArrow=classic;html=1;rounded=0;exitX=1;exitY=0.5;exitDx=0;exitDy=0;entryX=0;entryY=0.25;entryDx=0;entryDy=0;" parent="1" source="KDRSRYC82BVxWry2g-rX-8" target="KDRSRYC82BVxWry2g-rX-10" edge="1">
          <mxGeometry width="50" height="50" relative="1" as="geometry">
            <mxPoint x="1440" y="1500" as="sourcePoint" />
            <mxPoint x="1390" y="1630" as="targetPoint" />
          </mxGeometry>
        </mxCell>
        <mxCell id="KDRSRYC82BVxWry2g-rX-10" value="" style="rounded=0;whiteSpace=wrap;html=1;" parent="1" vertex="1">
          <mxGeometry x="1629" y="1216" width="250" height="250" as="geometry" />
        </mxCell>
        <mxCell id="KDRSRYC82BVxWry2g-rX-12" value="" style="rounded=0;whiteSpace=wrap;html=1;" parent="1" vertex="1">
          <mxGeometry x="1659" y="1256" width="190" height="40" as="geometry" />
        </mxCell>
        <mxCell id="KDRSRYC82BVxWry2g-rX-13" value="确定" style="rounded=0;whiteSpace=wrap;html=1;fontSize=20;" parent="1" vertex="1">
          <mxGeometry x="1694" y="1376" width="120" height="60" as="geometry" />
        </mxCell>
        <mxCell id="KDRSRYC82BVxWry2g-rX-14" value="" style="triangle;whiteSpace=wrap;html=1;rotation=90;" parent="1" vertex="1">
          <mxGeometry x="1814" y="1266" width="20" height="30" as="geometry" />
        </mxCell>
        <mxCell id="KDRSRYC82BVxWry2g-rX-15" value="" style="endArrow=classic;html=1;rounded=0;exitX=0.75;exitY=0;exitDx=0;exitDy=0;entryX=0.25;entryY=1;entryDx=0;entryDy=0;" parent="1" source="KDRSRYC82BVxWry2g-rX-12" target="KDRSRYC82BVxWry2g-rX-17" edge="1">
          <mxGeometry width="50" height="50" relative="1" as="geometry">
            <mxPoint x="1840" y="1750" as="sourcePoint" />
            <mxPoint x="1620" y="1690" as="targetPoint" />
          </mxGeometry>
        </mxCell>
        <mxCell id="KDRSRYC82BVxWry2g-rX-16" value="" style="rounded=0;whiteSpace=wrap;html=1;" parent="1" vertex="1">
          <mxGeometry x="2120" y="1256" width="120" height="240" as="geometry" />
        </mxCell>
        <mxCell id="KDRSRYC82BVxWry2g-rX-17" value="下拉菜单" style="text;html=1;align=center;verticalAlign=middle;whiteSpace=wrap;rounded=0;fontSize=20;" parent="1" vertex="1">
          <mxGeometry x="1724" y="1030" width="110" height="45" as="geometry" />
        </mxCell>
        <mxCell id="KDRSRYC82BVxWry2g-rX-18" value="新建书单" style="rounded=0;whiteSpace=wrap;html=1;fontSize=20;" parent="1" vertex="1">
          <mxGeometry x="2120" y="1296" width="120" height="40" as="geometry" />
        </mxCell>
        <mxCell id="KDRSRYC82BVxWry2g-rX-19" value="书单1" style="rounded=0;whiteSpace=wrap;html=1;fontSize=20;" parent="1" vertex="1">
          <mxGeometry x="2120" y="1336" width="120" height="40" as="geometry" />
        </mxCell>
        <mxCell id="KDRSRYC82BVxWry2g-rX-20" value="书单2" style="rounded=0;whiteSpace=wrap;html=1;fontSize=20;" parent="1" vertex="1">
          <mxGeometry x="2120" y="1376" width="120" height="40" as="geometry" />
        </mxCell>
        <mxCell id="KDRSRYC82BVxWry2g-rX-21" value="" style="endArrow=classic;html=1;rounded=0;exitX=0.5;exitY=1;exitDx=0;exitDy=0;entryX=0.5;entryY=0;entryDx=0;entryDy=0;" parent="1" source="KDRSRYC82BVxWry2g-rX-17" target="KDRSRYC82BVxWry2g-rX-25" edge="1">
          <mxGeometry width="50" height="50" relative="1" as="geometry">
            <mxPoint x="1880" y="1920" as="sourcePoint" />
            <mxPoint x="1675" y="1780" as="targetPoint" />
          </mxGeometry>
        </mxCell>
        <mxCell id="KDRSRYC82BVxWry2g-rX-22" value="书架" style="text;html=1;align=center;verticalAlign=middle;whiteSpace=wrap;rounded=0;fontSize=20;" parent="1" vertex="1">
          <mxGeometry x="1659" y="1254.75" width="130" height="42.5" as="geometry" />
        </mxCell>
        <mxCell id="KDRSRYC82BVxWry2g-rX-23" value="放在" style="text;html=1;align=center;verticalAlign=middle;whiteSpace=wrap;rounded=0;fontSize=20;" parent="1" vertex="1">
          <mxGeometry x="1724" y="1224" width="60" height="30" as="geometry" />
        </mxCell>
        <mxCell id="KDRSRYC82BVxWry2g-rX-24" value="中" style="text;html=1;align=center;verticalAlign=middle;whiteSpace=wrap;rounded=0;fontSize=20;" parent="1" vertex="1">
          <mxGeometry x="1724" y="1299" width="60" height="30" as="geometry" />
        </mxCell>
        <mxCell id="KDRSRYC82BVxWry2g-rX-25" value="书架" style="rounded=0;whiteSpace=wrap;html=1;fontSize=20;" parent="1" vertex="1">
          <mxGeometry x="2120" y="1256" width="120" height="40" as="geometry" />
        </mxCell>
        <mxCell id="KDRSRYC82BVxWry2g-rX-26" value="" style="endArrow=classic;html=1;rounded=0;exitX=0;exitY=0.5;exitDx=0;exitDy=0;entryX=0.25;entryY=0;entryDx=0;entryDy=0;" parent="1" source="KDRSRYC82BVxWry2g-rX-18" target="KDRSRYC82BVxWry2g-rX-32" edge="1">
          <mxGeometry width="50" height="50" relative="1" as="geometry">
            <mxPoint x="1880" y="1890" as="sourcePoint" />
            <mxPoint x="1890" y="1790" as="targetPoint" />
          </mxGeometry>
        </mxCell>
        <mxCell id="KDRSRYC82BVxWry2g-rX-32" value="" style="rounded=0;whiteSpace=wrap;html=1;" parent="1" vertex="1">
          <mxGeometry x="1890" y="1760" width="240" height="130" as="geometry" />
        </mxCell>
        <mxCell id="KDRSRYC82BVxWry2g-rX-33" value="新建书单" style="text;html=1;align=center;verticalAlign=middle;whiteSpace=wrap;rounded=0;fontSize=20;" parent="1" vertex="1">
          <mxGeometry x="1960" y="1770" width="100" height="30" as="geometry" />
        </mxCell>
        <mxCell id="KDRSRYC82BVxWry2g-rX-34" value="输入书单名字" style="rounded=0;whiteSpace=wrap;html=1;" parent="1" vertex="1">
          <mxGeometry x="1940" y="1805" width="140" height="30" as="geometry" />
        </mxCell>
        <mxCell id="KDRSRYC82BVxWry2g-rX-35" value="确定" style="rounded=0;whiteSpace=wrap;html=1;fontSize=20;" parent="1" vertex="1">
          <mxGeometry x="1980" y="1850" width="60" height="30" as="geometry" />
        </mxCell>
        <mxCell id="G4Zy9-JbaatdThs6KkDZ-1" value="" style="endArrow=classic;html=1;rounded=0;entryX=0.5;entryY=0;entryDx=0;entryDy=0;" parent="1" target="aA4Id0uSG5UaYZLyrY37-44" edge="1">
          <mxGeometry width="50" height="50" relative="1" as="geometry">
            <mxPoint x="1140" y="160" as="sourcePoint" />
            <mxPoint x="1120" y="170" as="targetPoint" />
          </mxGeometry>
        </mxCell>
        <mxCell id="G4Zy9-JbaatdThs6KkDZ-2" value="指上传书籍的功能&lt;div style=&quot;font-size: 20px;&quot;&gt;只有管理员有这个功能&lt;/div&gt;" style="text;html=1;align=center;verticalAlign=middle;whiteSpace=wrap;rounded=0;fontSize=20;" parent="1" vertex="1">
          <mxGeometry x="1090" y="100" width="220" height="60" as="geometry" />
        </mxCell>
        <mxCell id="jjh2pw-vxyTSB3nyHysx-1" value="" style="endArrow=classic;html=1;rounded=0;exitX=1;exitY=0.5;exitDx=0;exitDy=0;" edge="1" parent="1" source="aA4Id0uSG5UaYZLyrY37-67">
          <mxGeometry width="50" height="50" relative="1" as="geometry">
            <mxPoint x="1370" y="340" as="sourcePoint" />
            <mxPoint x="1320" y="290" as="targetPoint" />
          </mxGeometry>
        </mxCell>
        <mxCell id="jjh2pw-vxyTSB3nyHysx-2" value="点击展开" style="text;html=1;align=center;verticalAlign=middle;whiteSpace=wrap;rounded=0;fontSize=20;" vertex="1" parent="1">
          <mxGeometry x="1310" y="266" width="100" height="45" as="geometry" />
        </mxCell>
      </root>
    </mxGraphModel>
  </diagram>
</mxfile>
